#tb 0: 1/25
#media_type 0: video
#codec_id 0: rawvideo
#dimensions 0: 128x128
#sar 0: 0/1
0,          0,          0,        1,    24576, 0xdfd350a6
0,          1,          1,        1,    24576, 0xf8f638da
0,          2,          2,        1,    24576, 0x8ac574d5
0,          3,          3,        1,    24576, 0xd22675a4
0,          4,          4,        1,    24576, 0xdd0f4704
0,          5,          5,        1,    24576, 0x60da42e6
0,          6,          6,        1,    24576, 0x8bf28fdd
0,          7,          7,        1,    24576, 0xe0577f6e
0,          8,          8,        1,    24576, 0x8b3e3c29
0,          9,          9,        1,    24576, 0x8d9944bd
